<?xml version="1.0" standalone="no"?>
<!DOCTYPE svg PUBLIC "-//W3C//DTD SVG 20010904//EN"
 "http://www.w3.org/TR/2001/REC-SVG-20010904/DTD/svg10.dtd">
<svg version="1.0" xmlns="http://www.w3.org/2000/svg"
 width="376.000000pt" height="376.000000pt" viewBox="0 0 376.000000 376.000000"
 preserveAspectRatio="xMidYMid meet">
<metadata>
Created by potrace 1.11, written by Peter Selinger 2001-2013
</metadata>
<g transform="translate(0.000000,376.000000) scale(0.100000,-0.100000)"
fill="#000000" stroke="none">
<path d="M1609 3034 c-151 -109 -344 -248 -429 -309 -239 -172 -974 -701
-1077 -774 -51 -36 -92 -68 -93 -71 0 -3 91 -70 203 -150 249 -179 528 -379
1164 -836 270 -195 497 -354 503 -354 6 0 73 44 148 98 75 54 396 285 712 512
316 228 673 484 792 569 120 86 218 158 218 161 0 4 -1185 859 -1358 981 -99
68 -479 343 -493 355 -14 13 -48 -8 -290 -182z m948 -376 c367 -265 691 -497
719 -517 210 -149 354 -256 354 -261 0 -6 -148 -113 -655 -477 -93 -67 -179
-129 -190 -137 -143 -106 -900 -646 -905 -646 -8 0 -218 150 -1050 750 -135
97 -347 250 -473 340 -125 90 -227 167 -227 170 0 3 41 35 91 71 50 35 96 69
102 74 7 6 116 85 242 175 127 91 472 339 769 552 296 214 542 388 546 388 5
0 309 -217 677 -482z"/>
<path d="M1855 3087 c-11 -9 -14 -16 -7 -21 6 -3 13 -2 17 4 4 7 12 7 24 0 25
-13 35 0 13 16 -22 17 -24 17 -47 1z"/>
<path d="M1742 3006 c-19 -14 -29 -27 -23 -30 14 -9 61 22 61 40 0 17 2 18
-38 -10z"/>
<path d="M1975 3021 c-8 -13 55 -55 65 -45 5 5 -6 19 -25 31 -19 13 -37 19
-40 14z"/>
<path d="M1606 2907 c-16 -13 -25 -27 -19 -30 5 -3 25 7 44 23 41 35 18 41
-25 7z"/>
<path d="M2130 2899 c21 -18 36 -25 39 -18 4 14 -38 49 -59 48 -9 0 -1 -12 20
-30z"/>
<path d="M1481 2816 c-18 -13 -28 -27 -23 -30 5 -3 23 5 41 18 18 13 28 27 23
30 -5 3 -23 -5 -41 -18z"/>
<path d="M2236 2833 c-3 -3 9 -17 26 -29 34 -25 49 -25 28 1 -18 21 -46 36
-54 28z"/>
<path d="M1357 2728 c-26 -19 -36 -38 -19 -38 4 0 20 11 36 23 36 29 21 43
-17 15z"/>
<path d="M2366 2741 c-4 -5 7 -19 23 -30 32 -23 41 -26 41 -12 0 15 -58 52
-64 42z"/>
<path d="M1227 2636 c-28 -22 -34 -36 -18 -36 16 0 65 46 55 52 -5 4 -21 -4
-37 -16z"/>
<path d="M2520 2619 c21 -18 36 -25 39 -18 4 14 -38 49 -59 48 -9 0 -1 -12 20
-30z"/>
<path d="M1097 2542 c-30 -19 -39 -49 -9 -33 35 19 55 38 46 44 -5 3 -22 -2
-37 -11z"/>
<path d="M2627 2553 c-4 -3 8 -17 25 -30 37 -27 38 -27 38 -10 0 15 -54 49
-63 40z"/>
<path d="M967 2448 c-26 -19 -36 -38 -19 -38 4 1 20 11 36 24 35 29 21 42 -17
14z"/>
<path d="M2756 2462 c-3 -5 8 -19 24 -30 32 -24 40 -27 40 -13 0 14 -58 53
-64 43z"/>
<path d="M2885 2371 c-5 -10 40 -51 56 -51 18 0 8 17 -20 38 -17 12 -32 18
-36 13z"/>
<path d="M833 2353 c-24 -16 -30 -33 -14 -33 6 0 23 11 38 25 32 28 13 34 -24
8z"/>
<path d="M706 2259 c-14 -11 -26 -25 -26 -31 0 -12 63 26 68 41 6 17 -13 13
-42 -10z"/>
<path d="M3012 2269 c5 -15 68 -53 68 -41 0 12 -48 52 -62 52 -5 0 -8 -5 -6
-11z"/>
<path d="M577 2168 c-26 -19 -36 -38 -19 -38 4 0 20 11 36 23 36 29 21 43 -17
15z"/>
<path d="M3146 2181 c-4 -5 7 -19 23 -30 32 -23 41 -26 41 -12 0 15 -58 52
-64 42z"/>
<path d="M638 2105 c-88 -22 -153 -99 -129 -151 10 -22 20 -28 38 -21 4 1 8
17 9 35 2 41 20 77 49 96 l22 15 -23 -107 c-12 -59 -25 -118 -28 -132 -2 -14
-9 -45 -15 -70 -14 -58 -14 -60 3 -60 20 0 96 -43 150 -84 56 -42 97 -47 120
-14 28 39 21 53 -27 54 -26 1 -66 13 -107 34 -36 18 -66 33 -67 34 -1 1 16 84
38 185 21 101 39 186 39 190 0 11 -20 9 -72 -4z"/>
<path d="M1818 2098 c-46 -20 -85 -61 -95 -96 -8 -31 12 -72 35 -72 15 0 17 6
14 35 -4 36 28 99 56 110 16 6 17 13 -23 -174 -19 -90 -35 -167 -35 -173 0 -5
17 -8 37 -6 l37 3 28 120 c15 66 27 130 28 143 0 12 3 22 8 22 4 0 6 -56 4
-124 -4 -152 1 -166 63 -166 25 0 45 2 45 5 0 3 18 89 40 191 22 103 40 190
40 195 0 5 -17 9 -38 9 l-37 0 -29 -142 c-16 -79 -33 -152 -37 -163 -4 -11 -7
49 -6 133 2 169 1 172 -60 170 -18 -1 -52 -10 -75 -20z"/>
<path d="M2572 2088 c-28 -28 0 -81 38 -71 31 8 42 36 24 61 -17 24 -44 28
-62 10z"/>
<path d="M443 2071 c-13 -11 -23 -22 -23 -25 0 -13 20 -5 47 19 33 29 10 35
-24 6z"/>
<path d="M1503 2082 c-6 -4 -13 -20 -16 -37 -18 -109 -51 -233 -66 -248 -27
-28 -78 -39 -97 -20 -31 32 0 159 46 183 15 8 21 6 28 -6 5 -9 17 -14 28 -12
18 3 18 4 -4 26 -66 66 -181 -25 -182 -146 0 -29 -5 -44 -16 -49 -30 -11 -36
11 -20 80 17 73 11 108 -22 126 -22 12 -57 7 -78 -10 -11 -9 -14 -8 -14 5 0
12 -9 16 -34 16 -19 0 -37 -4 -40 -8 -3 -5 -12 -44 -21 -88 -20 -101 -30 -124
-54 -124 -28 0 -30 16 -10 105 28 124 33 117 -63 111 -79 -5 -84 -6 -115 -39
-52 -58 -72 -177 -35 -210 25 -23 74 -21 99 2 20 19 20 19 36 0 19 -22 66 -25
86 -6 11 10 14 10 18 0 3 -7 21 -13 42 -13 l37 0 19 93 c11 50 20 95 21 100 1
4 2 11 3 16 2 15 40 20 51 6 7 -9 6 -33 -4 -82 -17 -81 -16 -101 9 -119 26
-19 59 -17 85 4 23 18 24 18 43 -1 25 -25 96 -19 138 12 l30 22 -7 -25 c-6
-25 -4 -26 34 -26 l40 0 18 93 c10 50 19 95 20 100 1 4 2 11 3 16 0 5 10 11
21 14 29 8 43 -24 31 -71 -22 -83 -22 -111 -1 -132 35 -35 75 -24 143 38 38
36 34 48 -6 18 -58 -44 -85 -32 -68 31 22 81 21 110 -5 138 -19 20 -29 24 -51
19 -16 -4 -34 -12 -42 -18 -11 -9 -13 -5 -8 19 22 106 22 105 -9 105 -16 0
-34 -4 -41 -8z m-637 -151 c-3 -9 -10 -44 -17 -79 -16 -85 -46 -115 -69 -72
-20 37 11 148 46 168 23 13 46 4 40 -17z"/>
<path d="M3293 2065 c27 -24 47 -32 47 -19 0 11 -45 43 -60 43 -10 0 -5 -8 13
-24z"/>
<path d="M2428 2062 c-11 -2 -18 -13 -18 -27 0 -13 -6 -30 -14 -38 -9 -8 -12
-24 -9 -36 3 -11 1 -40 -5 -64 -6 -23 -14 -58 -17 -77 -6 -37 -19 -50 -49 -50
-16 0 -18 6 -12 54 4 29 13 76 21 105 7 28 9 53 4 56 -19 13 -154 -5 -179 -23
-35 -26 -58 -78 -65 -145 -5 -51 -3 -60 19 -82 21 -21 29 -23 56 -15 18 5 38
14 46 20 10 9 19 8 36 -4 30 -21 60 -20 90 4 25 19 26 19 43 0 24 -27 64 -25
100 4 l29 23 19 -23 c24 -31 68 -31 103 0 l28 23 18 -22 c53 -68 160 -6 183
106 4 22 31 47 40 37 4 -4 -24 -148 -31 -159 -3 -5 13 -9 35 -9 45 0 47 2 55
50 23 149 56 213 84 164 6 -10 4 -37 -4 -72 -19 -82 -18 -108 8 -126 35 -25
65 -19 108 20 46 42 47 53 2 27 -47 -27 -56 -11 -41 69 14 79 8 111 -26 126
-20 9 -33 9 -60 -2 -29 -13 -33 -13 -28 0 4 11 -4 14 -35 14 -38 0 -40 -2 -49
-37 -6 -28 -14 -39 -31 -41 -16 -3 -22 2 -22 15 0 35 -29 63 -65 63 -74 0
-123 -53 -136 -147 -8 -56 -19 -73 -51 -73 -23 0 -23 21 1 133 l18 87 -38 0
c-43 0 -40 5 -64 -115 -16 -81 -31 -105 -68 -105 -18 0 -19 5 -12 56 10 80 29
139 45 139 7 0 15 6 18 13 2 6 -3 12 -12 12 -12 0 -14 8 -10 40 6 42 2 44 -58
32z m-195 -201 c-13 -60 -23 -86 -37 -93 -46 -25 -55 65 -16 143 19 36 46 53
63 39 4 -3 -1 -43 -10 -89z m583 88 c3 -6 1 -16 -5 -22 -14 -14 -15 -57 -1
-57 13 0 3 -47 -16 -77 -17 -28 -50 -30 -63 -4 -6 10 -9 20 -7 22 2 2 6 20 9
39 11 81 59 138 83 99z"/>
<path d="M316 1979 c-14 -11 -26 -25 -26 -31 0 -12 63 26 68 41 6 17 -13 13
-42 -10z"/>
<path d="M3400 1991 c0 -10 45 -41 60 -41 19 0 10 16 -19 33 -33 19 -41 21
-41 8z"/>
<path d="M197 1892 c-15 -16 -15 -19 3 -30 27 -16 27 -16 27 18 0 34 -7 37
-30 12z"/>
<path d="M3533 1880 c0 -35 4 -36 29 -14 17 16 17 18 0 30 -25 19 -29 17 -29
-16z"/>
<path d="M3427 1795 c-28 -25 -33 -35 -18 -35 16 0 65 46 55 52 -5 4 -21 -4
-37 -17z"/>
<path d="M315 1785 c32 -26 45 -31 45 -16 0 11 -45 41 -62 41 -7 -1 1 -12 17
-25z"/>
<path d="M420 1711 c0 -11 45 -41 62 -41 7 1 0 12 -17 25 -32 26 -45 31 -45
16z"/>
<path d="M3293 1695 c-18 -16 -23 -24 -13 -24 15 0 60 32 60 43 0 13 -20 5
-47 -19z"/>
<path d="M550 1618 c1 -15 70 -53 70 -38 0 9 -53 50 -64 50 -3 0 -6 -6 -6 -12z"/>
<path d="M3165 1606 c-16 -13 -28 -27 -25 -30 8 -7 70 31 70 44 0 16 -13 12
-45 -14z"/>
<path d="M680 1532 c0 -12 48 -52 62 -52 18 0 3 21 -30 41 -17 12 -32 16 -32
11z"/>
<path d="M3042 1518 c-33 -21 -42 -38 -19 -38 15 0 63 47 56 54 -3 3 -19 -4
-37 -16z"/>
<path d="M1755 1519 c-16 -4 -71 -23 -121 -43 -96 -37 -142 -40 -175 -10 -16
15 -17 14 -12 -5 7 -29 87 -99 138 -122 88 -39 210 -25 270 31 l24 23 31 -27
c41 -34 123 -57 180 -50 88 11 183 71 217 138 l16 31 -22 -20 c-34 -30 -101
-24 -201 19 -112 48 -157 54 -193 25 -27 -21 -29 -21 -48 -3 -22 20 -59 25
-104 13z"/>
<path d="M810 1432 c0 -14 59 -52 65 -43 3 5 -7 19 -21 30 -28 22 -44 27 -44
13z"/>
<path d="M2903 1415 c-18 -16 -23 -24 -13 -24 15 0 60 32 60 43 0 13 -20 5
-47 -19z"/>
<path d="M940 1341 c0 -14 58 -53 64 -43 3 5 -8 19 -24 30 -32 24 -40 27 -40
13z"/>
<path d="M2777 1329 c-15 -11 -25 -25 -22 -30 6 -9 65 29 65 43 0 13 -13 9
-43 -13z"/>
<path d="M1070 1248 c0 -12 48 -48 64 -48 14 0 -8 28 -34 44 -23 13 -30 14
-30 4z"/>
<path d="M2654 1238 c-16 -12 -31 -23 -33 -25 -2 -2 -2 -6 2 -9 9 -9 67 28 67
43 0 17 -3 17 -36 -9z"/>
<path d="M1762 1208 c-7 -7 -12 -18 -12 -25 0 -7 -10 -18 -22 -24 -13 -7 -33
-23 -45 -36 -21 -22 -50 -33 -39 -14 4 5 1 11 -6 13 -9 3 -9 6 0 12 7 4 12 2
12 -4 0 -6 5 -8 10 -5 15 9 2 25 -19 25 -22 0 -34 -45 -17 -59 6 -5 45 -8 86
-6 94 4 90 3 90 14 0 5 -9 7 -20 4 -29 -8 -27 35 3 47 12 5 16 9 9 9 -8 1 -11
10 -8 26 5 28 -6 39 -22 23z m-22 -77 c0 -11 -4 -23 -10 -26 -6 -4 -10 5 -10
19 0 14 5 26 10 26 6 0 10 -9 10 -19z m-40 -31 c0 -5 -5 -10 -11 -10 -5 0 -7
5 -4 10 3 6 8 10 11 10 2 0 4 -4 4 -10z"/>
<path d="M1200 1157 c0 -15 41 -47 60 -47 16 0 4 16 -30 40 -23 17 -30 18 -30
7z"/>
<path d="M2103 1159 c-6 -6 -9 -18 -6 -25 3 -8 0 -20 -5 -27 -15 -17 1 -40 24
-35 13 2 19 12 19 28 0 14 3 30 7 35 4 6 3 17 -3 25 -7 13 -9 12 -9 -2 0 -9
-5 -20 -11 -24 -8 -4 -9 0 -4 15 7 24 4 26 -12 10z m17 -65 c0 -8 -5 -12 -10
-9 -6 4 -8 11 -5 16 9 14 15 11 15 -7z"/>
<path d="M2520 1141 c-21 -18 -29 -30 -20 -30 21 -1 63 34 59 48 -3 7 -18 0
-39 -18z"/>
<path d="M1901 1147 c-6 -8 -8 -17 -4 -20 3 -4 12 1 19 11 12 16 13 15 14 -5
0 -17 -6 -23 -21 -23 -30 0 -18 -24 14 -27 15 -1 29 2 32 8 4 5 2 9 -3 9 -5 0
-7 14 -4 30 4 25 1 30 -16 30 -11 0 -25 -6 -31 -13z"/>
<path d="M1980 1146 c-18 -22 -9 -61 15 -61 26 0 46 52 25 65 -20 13 -26 12
-40 -4z m30 -18 c0 -7 -5 -20 -10 -28 -8 -12 -10 -9 -10 13 0 15 5 27 10 27 6
0 10 -6 10 -12z"/>
<path d="M2053 1148 c-5 -7 -6 -26 -3 -43 7 -32 16 -23 24 28 5 28 -5 36 -21
15z"/>
<path d="M1810 1095 c0 -9 5 -15 11 -13 6 2 11 8 11 13 0 5 -5 11 -11 13 -6 2
-11 -4 -11 -13z"/>
<path d="M1330 1061 c0 -14 58 -53 64 -43 3 5 -8 19 -24 30 -32 24 -40 27 -40
13z"/>
<path d="M2387 1049 c-15 -11 -25 -25 -21 -30 6 -10 64 27 64 42 0 14 -12 10
-43 -12z"/>
<path d="M1457 973 c-9 -8 54 -54 65 -47 5 3 -5 17 -23 30 -38 28 -34 26 -42
17z"/>
<path d="M2261 956 c-18 -13 -28 -27 -23 -30 5 -3 23 5 41 18 18 13 28 27 23
30 -5 3 -23 -5 -41 -18z"/>
<path d="M2130 861 c-21 -18 -29 -30 -20 -30 21 -1 63 34 59 48 -3 7 -18 0
-39 -18z"/>
<path d="M1605 855 c40 -33 69 -33 32 0 -15 14 -36 25 -45 25 -12 0 -9 -7 13
-25z"/>
<path d="M1716 782 c-2 -4 11 -17 29 -29 42 -28 55 -14 15 15 -32 24 -37 26
-44 14z"/>
<path d="M1996 766 c-15 -13 -24 -26 -20 -29 12 -6 76 38 67 46 -10 10 -16 8
-47 -17z"/>
<path d="M1846 693 c-3 -3 3 -12 14 -20 15 -11 25 -11 40 -3 11 6 18 16 14 21
-4 8 -9 8 -17 0 -6 -6 -16 -7 -27 -1 -10 5 -20 6 -24 3z"/>
</g>
</svg>
