<svg height="464pt" viewBox="0 0 464 464" width="464pt" xmlns="http://www.w3.org/2000/svg"><path d="m303.480469 3.945312c-20.539063 6.847657-39.203125 18.382813-54.511719 33.695313l-211.328125 211.328125c-15.3125 15.308594-26.847656 33.972656-33.695313 54.511719-8.640624 26.546875-2.550781 55.6875 16 76.550781l360.054688-360.03125c-20.847656-18.558594-49.972656-24.667969-76.519531-16.054688zm0 0" fill="#fdbb3d"/><path d="m160.550781 460.089844c20.542969-6.84375 39.207031-18.378906 54.511719-33.691406l211.335938-211.335938c15.316406-15.304688 26.851562-33.96875 33.699218-54.511719 8.636719-26.546875 2.546875-55.683593-16-76.550781l-360.097656 360.0625c20.859375 18.558594 50 24.660156 76.550781 16.027344zm0 0" fill="#f0b237"/><path d="m37.640625 248.96875c-15.3125 15.308594-26.847656 33.972656-33.695313 54.511719-8.640624 26.546875-2.550781 55.6875 16 76.550781l210.351563-210.328125c-58.023437 27.871094-118.476563 50.363281-180.601563 67.199219zm0 0" fill="#f0b237"/><path d="m13.257812 386.742188 373.484376-373.484376c8.488281-8.488281 20-13.257812 32-13.257812 24.996093 0 45.257812 20.261719 45.257812 45.257812 0 12-4.769531 23.511719-13.257812 32l-373.484376 373.484376c-8.488281 8.488281-20 13.257812-32 13.257812-24.996093 0-45.257812-20.261719-45.257812-45.257812 0-12 4.769531-23.511719 13.257812-32zm0 0" fill="#e94f4f"/><path d="m34.34375 418.34375-11.3125-11.3125c10.269531-9.800781 24.46875-14.351562 38.519531-12.34375 10.402344.296875 18.527344.542969 26.738281-7.664062 8.207032-8.207032 8-16.398438 7.671876-26.75-2.339844-14.085938 2.261718-28.433594 12.359374-38.527344 10.09375-10.097656 24.441407-14.699219 38.527344-12.363282 10.398438.320313 18.535156.554688 26.753906-7.671874 8.214844-8.222657 8-16.390626 7.671876-26.742188-2.347657-14.089844 2.253906-28.441406 12.351562-38.542969 10.101562-10.097656 24.453125-14.699219 38.542969-12.355469 10.34375.304688 18.535156.546876 26.753906-7.679687 8.214844-8.222656 8-16.390625 7.664063-26.726563-2.34375-14.089843 2.257812-28.441406 12.355468-38.539062s24.449219-14.703125 38.539063-12.363281c10.351562.328125 18.535156.542969 26.757812-7.691407 8.226563-8.230468 8-16.414062 7.699219-26.773437-1.996094-14.074219 2.566406-28.28125 12.382812-38.5625 10.277344-9.8125 24.484376-14.375 38.550782-12.382813 10.402344.3125 18.554687.542969 26.785156-7.695312l11.3125 11.3125c-10.292969 9.796875-24.496094 14.359375-38.570312 12.382812-10.398438-.3125-18.550782-.535156-26.78125 7.695313-8.234376 8.234375-8 16.425781-7.695313 26.785156 2 14.070313-2.558594 28.285157-12.371094 38.566407-10.285156 9.792968-24.480469 14.347656-38.542969 12.371093-10.34375-.3125-18.527343-.546875-26.761718 7.6875-8.230469 8.230469-8 16.390625-7.671875 26.742188 2.34375 14.085937-2.257813 28.433593-12.351563 38.527343s-24.441406 14.695313-38.527344 12.351563c-10.359374-.285156-18.535156-.535156-26.757812 7.683594-8.226562 8.214843-8 16.398437-7.671875 26.75 2.339844 14.085937-2.261719 28.433593-12.355469 38.527343-10.09375 10.097657-24.441406 14.699219-38.527344 12.359376-10.335937-.300782-18.535156-.550782-26.75 7.671874-8.21875 8.226563-8 16.402344-7.671874 26.746094 1.992187 14.058594-2.5625 28.257813-12.359376 38.535156-10.273437 9.800782-24.46875 14.347657-38.523437 12.34375-10.335937-.296874-18.519531-.566406-26.734375 7.648438zm0 0" fill="#fdbb3d"/></svg>